<svg width="37" height="24" viewBox="0 0 37 24" fill="none" xmlns="http://www.w3.org/2000/svg">
<path d="M10.941 0.521484C12.0007 0.521484 12.9543 0.613246 13.8287 0.800366C14.6977 0.985687 15.439 1.29156 16.0652 1.71438C16.6823 2.1372 17.1645 2.69856 17.5117 3.40386C17.8482 4.10016 18.0155 4.97099 18.0155 6.00015C18.0155 7.11567 17.7636 8.04768 17.2581 8.79076C16.7489 9.53564 15.9986 10.1456 14.9982 10.617C16.3602 11.011 17.3696 11.7001 18.0389 12.6789C18.7118 13.6667 19.0411 14.8488 19.0411 16.2342C19.0411 17.3587 18.827 18.3249 18.397 19.1363C17.9826 19.9357 17.3814 20.6233 16.6445 21.1407C15.8812 21.6722 15.0286 22.0622 14.1274 22.2922C13.1825 22.5402 12.2094 22.6648 11.2324 22.6628H0.5V0.521484H10.941ZM10.3094 9.46727C11.1731 9.46727 11.8891 9.26216 12.4541 8.84654C13.0155 8.43631 13.2872 7.7598 13.2872 6.83319C13.2872 6.31861 13.1954 5.89399 13.0155 5.56114C12.8402 5.24091 12.5807 4.97464 12.2652 4.79106C11.9349 4.59518 11.5704 4.4639 11.191 4.40423C10.7776 4.32712 10.3576 4.29036 9.93698 4.29448H5.37592V9.46727H10.3094ZM10.5811 18.8935C11.0615 18.8935 11.5185 18.8521 11.9485 18.7549C12.3821 18.6614 12.7672 18.5102 13.0946 18.2853C13.4221 18.0694 13.692 17.7761 13.8863 17.4019C14.0824 17.0312 14.1778 16.5473 14.1778 15.9661C14.1778 14.8254 13.8557 14.0139 13.2188 13.5227C12.5801 13.0369 11.7236 12.7959 10.6747 12.7959H5.37592V18.8953H10.5811V18.8935ZM25.9915 18.8197C26.6519 19.4638 27.6037 19.7877 28.8415 19.7877C29.7285 19.7877 30.495 19.5628 31.1409 19.1166C31.7779 18.6685 32.1665 18.19 32.3158 17.6952H36.1932C35.5707 19.6239 34.6261 21.0022 33.3342 21.8316C32.0586 22.6646 30.5058 23.0785 28.6922 23.0785C27.4291 23.0785 26.292 22.8752 25.2736 22.4721C24.2962 22.0915 23.4128 21.5034 22.6845 20.7485C21.9683 19.9759 21.4145 19.0673 21.0562 18.0766C20.6624 16.9811 20.4674 15.824 20.4805 14.6599C20.4805 13.4616 20.6802 12.3406 21.0724 11.3061C21.4448 10.306 22.0165 9.39212 22.7529 8.61983C23.4816 7.86416 24.3452 7.26861 25.351 6.83139C26.4086 6.38658 27.5467 6.16485 28.694 6.18007C30.0506 6.18007 31.2363 6.44276 32.2547 6.97174C33.2422 7.47668 34.0985 8.20484 34.7556 9.09843C35.4087 9.98545 35.8747 11.002 36.1644 12.1409C36.4541 13.278 36.5548 14.4655 36.4721 15.7088H24.9012C24.903 16.9755 25.3294 18.1756 25.9915 18.8197ZM31.051 10.3975C30.5274 9.81812 29.6422 9.50506 28.559 9.50506C27.8555 9.50506 27.2744 9.62201 26.8066 9.8631C26.3789 10.0791 25.9994 10.3797 25.6911 10.7465C25.4203 11.0796 25.2196 11.4639 25.1009 11.8764C24.9971 12.2204 24.9302 12.5745 24.9012 12.9326H32.0657C31.9614 11.8099 31.5764 10.9804 31.051 10.3975ZM24.0016 2.00765H32.978V4.19372H24.0016V2.00765Z" fill="white" fill-opacity="0.75"/>
</svg>
