<svg width="31" height="32" viewBox="0 0 31 32" fill="none" xmlns="http://www.w3.org/2000/svg">
<path d="M29.5 15.8008C29.5024 17.6448 29.1393 19.471 28.4317 21.1739C27.7242 22.8767 26.6862 24.4225 25.3777 25.7219C24.0799 27.0173 22.5396 28.0444 20.8447 28.7442C19.1499 29.4441 17.3337 29.8031 15.5 29.8008C7.76781 29.8008 1.50001 23.533 1.50001 15.8008C1.49512 12.211 2.87402 8.7575 5.35001 6.15829C6.65645 4.77971 8.23045 3.68221 9.9757 2.93296C11.7209 2.18371 13.6007 1.79846 15.5 1.80079C17.3337 1.79842 19.1499 2.15743 20.8447 2.85731C22.5396 3.55719 24.0799 4.58422 25.3777 5.87969M29.5 15.8008C29.5024 13.9568 29.1393 12.1306 28.4317 10.4277C27.7242 8.72482 26.6862 7.17905 25.3777 5.87969M29.5 15.8008C27.4574 15.8008 21.8224 15.0307 16.7789 17.2448C11.3 19.6507 7.33315 23.3823 5.60415 25.7035M29.5 15.8008C29.5 17.5249 29.1884 19.1754 28.6179 20.7007M25.3777 5.87969C24.1449 4.65136 22.6943 3.66305 21.0999 2.96548M10.25 2.81878C12.441 4.84108 17.222 9.99028 19 15.101C20.778 20.2124 21.436 26.497 21.842 28.2855M1.6079 14.0509C4.25249 14.2105 11.2532 14.354 15.7332 12.4409C20.2132 10.5278 24.0681 7.00887 25.3904 5.89237M2.54996 21.1299C3.78358 24.116 6.00845 26.5858 8.84996 28.1235" stroke="white" stroke-opacity="0.75" stroke-width="2.8" stroke-linecap="round" stroke-linejoin="round"/>
</svg>
