<svg width="29" height="26" viewBox="0 0 29 26" fill="none" xmlns="http://www.w3.org/2000/svg">
<path fill-rule="evenodd" clip-rule="evenodd" d="M10.9004 8.98178H16.1V11.3128C16.849 9.97214 18.7698 8.76758 21.6552 8.76758C27.1866 8.76758 28.4998 11.4363 28.4998 16.3326V25.4008H22.8998V17.4477C22.8998 14.6593 22.1508 13.0869 20.244 13.0869C17.5994 13.0869 16.5004 14.7816 16.5004 17.4465V25.4008H10.9004V8.98178Z" fill="white" fill-opacity="0.75"/>
<path fill-rule="evenodd" clip-rule="evenodd" d="M1.29785 25.1866H6.89785V8.76758H1.29785V25.1866Z" fill="white" fill-opacity="0.75"/>
<path fill-rule="evenodd" clip-rule="evenodd" d="M7.7002 3.41417C7.70041 3.83662 7.60732 4.25489 7.42634 4.64467C7.24537 5.03446 6.98011 5.38798 6.646 5.6847C5.96896 6.29028 5.05253 6.62926 4.098 6.62718C3.14515 6.6266 2.23084 6.28849 1.5528 5.68596C1.2199 5.38823 0.95554 5.03431 0.774881 4.64448C0.594222 4.25464 0.500811 3.83656 0.5 3.41417C0.5 2.56115 0.878 1.74467 1.5542 1.14239C2.23164 0.539052 3.14634 0.200795 4.0994 0.201172C5.0542 0.201172 5.9698 0.540112 6.646 1.14239C7.3208 1.74467 7.7002 2.56115 7.7002 3.41417Z" fill="white" fill-opacity="0.75"/>
</svg>
