<svg width="29" height="29" viewBox="0 0 29 29" fill="none" xmlns="http://www.w3.org/2000/svg">
<path d="M21.2184 16.8914C21.1639 16.8652 19.1226 15.8601 18.7599 15.7295C18.6118 15.6763 18.4532 15.6244 18.2844 15.6244C18.0088 15.6244 17.7773 15.7618 17.5969 16.0316C17.393 16.3347 16.7757 17.0562 16.585 17.2718C16.5601 17.3002 16.5261 17.3343 16.5057 17.3343C16.4874 17.3343 16.1715 17.2042 16.0759 17.1626C13.8862 16.2114 12.2241 13.9241 11.9962 13.5383C11.9636 13.4829 11.9622 13.4577 11.962 13.4577C11.97 13.4283 12.0436 13.3545 12.0816 13.3164C12.1928 13.2064 12.3132 13.0614 12.4298 12.9212C12.485 12.8547 12.5402 12.7882 12.5945 12.7254C12.7636 12.5287 12.8389 12.376 12.9262 12.1991L12.9719 12.1072C13.185 11.6838 13.003 11.3265 12.9442 11.2112C12.8959 11.1146 12.034 9.03442 11.9423 8.81588C11.722 8.28851 11.4308 8.04297 11.0262 8.04297C10.9886 8.04297 11.0262 8.04297 10.8687 8.0496C10.677 8.0577 9.63288 8.19515 9.17124 8.48615C8.6817 8.79479 7.85352 9.77861 7.85352 11.5088C7.85352 13.066 8.8417 14.5362 9.26597 15.0954C9.27652 15.1095 9.29588 15.1382 9.32397 15.1792C10.9488 17.5522 12.9743 19.3107 15.0277 20.131C17.0045 20.9206 17.9406 21.0119 18.4728 21.0119H18.4729C18.6965 21.0119 18.8755 20.9943 19.0334 20.9788L19.1336 20.9693C19.8165 20.9087 21.3173 20.1311 21.6586 19.1824C21.9275 18.4353 21.9984 17.6189 21.8195 17.3226C21.697 17.1212 21.4858 17.0198 21.2184 16.8914Z" fill="white" fill-opacity="0.75"/>
<path d="M14.7485 0.800781C7.16526 0.800781 0.995797 6.92388 0.995797 14.4502C0.995797 16.8844 1.64725 19.2673 2.88134 21.3527L0.519252 28.3204C0.475252 28.4503 0.507979 28.594 0.60407 28.6918C0.673434 28.7626 0.767525 28.8008 0.863616 28.8008C0.900434 28.8008 0.937525 28.7953 0.973707 28.7837L8.23917 26.475C10.2274 27.5373 12.4744 28.098 14.7486 28.098C22.3312 28.0981 28.5 21.9756 28.5 14.4502C28.5 6.92388 22.3312 0.800781 14.7485 0.800781ZM14.7485 25.2548C12.6086 25.2548 10.536 24.6369 8.75435 23.4678C8.69444 23.4284 8.62489 23.4083 8.55489 23.4083C8.51789 23.4083 8.4808 23.4139 8.44471 23.4253L4.80516 24.5823L5.98007 21.116C6.01807 21.0038 5.99907 20.8801 5.92907 20.7844C4.57235 18.9306 3.85516 16.7403 3.85516 14.4502C3.85516 8.4917 8.74189 3.64406 14.7484 3.64406C20.7543 3.64406 25.6405 8.4917 25.6405 14.4502C25.6405 20.4079 20.7544 25.2548 14.7485 25.2548Z" fill="white" fill-opacity="0.75"/>
</svg>
